<svg xmlns="http://www.w3.org/2000/svg" viewBox="0 0 1920 143"><defs><style>.cls-1{fill:#003900;}.cls-2{fill:#ff0;}.cls-3{fill:#fff;}.cls-4{fill:red;}.cls-5{fill:#3fe1ff;}</style></defs><g id="Layer_1" data-name="Layer 1"><rect class="cls-1" width="1920" height="143"/></g><g id="Layer_2" data-name="Layer 2"><path class="cls-2" d="M92.25,23.71,102.68,55.8l.67,2.07h35.92L112,77.7,110.21,79l.68,2.08,10.42,32.09L94,93.31,92.25,92l-1.76,1.28-27.3,19.84L73.62,81.06,74.29,79,72.53,77.7,45.23,57.87H81.15l.68-2.07L92.25,23.71m0-9.71L79,54.87H36L70.77,80.13,57.49,121,92.25,95.74,127,121,113.74,80.13l34.77-25.26h-43L92.25,14Z"/><path class="cls-3" d="M198,71.57A9.69,9.69,0,0,1,204,74.25,7.73,7.73,0,0,1,206,79.8a8.77,8.77,0,0,1-3.73,7.61q-3.72,2.66-10.66,2.66H180.08V54.32H191.5c4.1,0,7.27.79,9.49,2.38a7.84,7.84,0,0,1,3.33,6.77,7.61,7.61,0,0,1-1.65,5A8.78,8.78,0,0,1,198,71.29Zm-12.72-12.4v10h5.59a10.6,10.6,0,0,0,5.88-1.39,4.39,4.39,0,0,0,2.08-3.84,3.86,3.86,0,0,0-2.08-3.49,11.74,11.74,0,0,0-5.92-1.23Zm5.69,26a13.78,13.78,0,0,0,7.14-1.52,4.84,4.84,0,0,0,2.48-4.35,4.36,4.36,0,0,0-2.48-4A14.8,14.8,0,0,0,191,74h-5.73V85.21Z"/><path class="cls-3" d="M217,58.62a3.28,3.28,0,0,1-2.38.88,3.08,3.08,0,0,1-2.29-.88,3.7,3.7,0,0,1,0-4.72,3.08,3.08,0,0,1,2.29-.88,3.28,3.28,0,0,1,2.38.88,3.52,3.52,0,0,1,0,4.72Zm.21,6V90.07h-5V64.63Z"/><path class="cls-3" d="M237.8,69.39h-7.08V82.3a4,4,0,0,0,1,2.87,3.75,3.75,0,0,0,2.8,1,8.18,8.18,0,0,0,2.73-.51v4.72a11.89,11.89,0,0,1-3.84.6,7.54,7.54,0,0,1-5.74-2.1,8.49,8.49,0,0,1-2-6V69.39h-4V64.63h4V56.86h5v7.77h7.08Z"/><path class="cls-3" d="M247.19,90.07l-8.28-25.44h5.5l5.41,18.92h.24l5.36-18.92h5.32l5.41,18.92h.23l5.37-18.92h5.5L269,90.07h-5.37L258.2,71.2H258l-5.41,18.87Z"/><path class="cls-3" d="M286,58.62a3.3,3.3,0,0,1-2.38.88,3.07,3.07,0,0,1-2.29-.88,3.67,3.67,0,0,1,0-4.72,3.07,3.07,0,0,1,2.29-.88,3.3,3.3,0,0,1,2.38.88,3.54,3.54,0,0,1,0,4.72Zm.21,6V90.07h-5V64.63Z"/><path class="cls-3" d="M295.26,89.07a10.29,10.29,0,0,1-4-4.41l4.25-2.18a6.89,6.89,0,0,0,6.29,3.84,5.8,5.8,0,0,0,3.31-.81,2.52,2.52,0,0,0,1.18-2.19,2.58,2.58,0,0,0-1.23-2.2,12.05,12.05,0,0,0-4-1.5,17.49,17.49,0,0,1-6.83-2.89,5.85,5.85,0,0,1-2.28-4.79,7.14,7.14,0,0,1,2.61-5.81,10.7,10.7,0,0,1,7-2.15,11,11,0,0,1,10,5.78l-4.07,2.36a8.48,8.48,0,0,0-2.64-2.77,6,6,0,0,0-3.29-1,5.33,5.33,0,0,0-3.23.88A2.73,2.73,0,0,0,297,71.57a2.63,2.63,0,0,0,1.37,2.2,13.35,13.35,0,0,0,4.28,1.54q8.74,1.95,8.74,7.5a7,7,0,0,1-2.66,5.75,10.83,10.83,0,0,1-7,2.16A12.19,12.19,0,0,1,295.26,89.07Z"/><path class="cls-3" d="M337.38,79H320a9,9,0,0,0,2.2,5.37,6.45,6.45,0,0,0,4.92,1.94,6.35,6.35,0,0,0,3.38-.95,7.77,7.77,0,0,0,2.64-2.7l4.07,2.26a11.05,11.05,0,0,1-4.07,4.28,11.65,11.65,0,0,1-6,1.51,12.77,12.77,0,0,1-6.56-1.62,10.88,10.88,0,0,1-4.28-4.6,15.44,15.44,0,0,1-1.51-7,16.62,16.62,0,0,1,1.44-7.17,10.68,10.68,0,0,1,4.11-4.7,11.88,11.88,0,0,1,6.3-1.64A10.8,10.8,0,0,1,334.76,67a11.31,11.31,0,0,1,3,8.27A16.3,16.3,0,0,1,337.38,79Zm-4.77-4.34A6.39,6.39,0,0,0,331,70.09a6.29,6.29,0,0,0-8.55-.07,8.47,8.47,0,0,0-2.22,4.65Z"/><path class="cls-3" d="M365,54.32V85.21h17.3v4.86H359.81V54.32Z"/><path class="cls-3" d="M391.93,58.62a3.32,3.32,0,0,1-2.39.88,3.08,3.08,0,0,1-2.29-.88,3.7,3.7,0,0,1,0-4.72,3.08,3.08,0,0,1,2.29-.88,3.32,3.32,0,0,1,2.39.88,3.54,3.54,0,0,1,0,4.72Zm.2,6V90.07h-5V64.63Z"/><path class="cls-3" d="M398.93,90.07V54.32h5V68.05h.24a9.54,9.54,0,0,1,3.33-3A8.84,8.84,0,0,1,411.79,64a9.59,9.59,0,0,1,5.5,1.62A10.65,10.65,0,0,1,421,70.2a16.14,16.14,0,0,1,1.34,6.73A18.15,18.15,0,0,1,421,84.1,11.18,11.18,0,0,1,417.29,89a9.12,9.12,0,0,1-5.5,1.74,8.93,8.93,0,0,1-4.35-1.07,9.16,9.16,0,0,1-3.23-3H404v3.42Zm6.69-6.57a5.67,5.67,0,0,0,4.69,2.36,6.11,6.11,0,0,0,5-2.36,9.42,9.42,0,0,0,1.92-6.15,10.78,10.78,0,0,0-.85-4.39,7.17,7.17,0,0,0-2.39-3,6.05,6.05,0,0,0-6.93,0,7.09,7.09,0,0,0-2.39,3,10.78,10.78,0,0,0-.85,4.39A9.74,9.74,0,0,0,405.62,83.5Z"/><path class="cls-3" d="M448.84,79H431.49a9,9,0,0,0,2.2,5.37,6.45,6.45,0,0,0,4.92,1.94,6.35,6.35,0,0,0,3.38-.95,7.77,7.77,0,0,0,2.64-2.7l4.07,2.26a11.05,11.05,0,0,1-4.07,4.28,11.65,11.65,0,0,1-6,1.51,12.79,12.79,0,0,1-6.56-1.62,10.88,10.88,0,0,1-4.28-4.6,15.44,15.44,0,0,1-1.5-7,16.62,16.62,0,0,1,1.43-7.17,10.64,10.64,0,0,1,4.12-4.7A11.82,11.82,0,0,1,438.11,64,10.8,10.8,0,0,1,446.22,67a11.31,11.31,0,0,1,3,8.27A16.25,16.25,0,0,1,448.84,79Zm-4.77-4.34a6.39,6.39,0,0,0-1.62-4.58A6.29,6.29,0,0,0,433.9,70a8.47,8.47,0,0,0-2.22,4.65Z"/><path class="cls-3" d="M454.43,90.07l-.09-25.44h5.18v4.76h.23A10.4,10.4,0,0,1,469.19,64h.27v5.23h-.41q-4.55,0-7,1.94a6.1,6.1,0,0,0-2.5,5V90.07Z"/><path class="cls-3" d="M473.53,88.77a6.63,6.63,0,0,1-2.17-5.22,7,7,0,0,1,3.24-6.27q3.22-2.15,9.2-2.15H487V73.51a4.94,4.94,0,0,0-1.41-3.72,5.2,5.2,0,0,0-3.77-1.37,8.58,8.58,0,0,0-5.92,2.73l-3.15-3A12.53,12.53,0,0,1,482.27,64a10,10,0,0,1,7.15,2.5,8.73,8.73,0,0,1,2.66,6.66V90.07h-5V86.69h-.28a7,7,0,0,1-3,2.94,9.21,9.21,0,0,1-4.39,1.09A8.4,8.4,0,0,1,473.53,88.77Zm10-3A5.84,5.84,0,0,0,486,83.85a4.88,4.88,0,0,0,1-3.12V79.52h-2.45a15.45,15.45,0,0,0-6.09.9,3,3,0,0,0-2,2.8,2.71,2.71,0,0,0,1.09,2.25,4.6,4.6,0,0,0,2.93.85A8.05,8.05,0,0,0,483.55,85.72Z"/><path class="cls-3" d="M511.92,69.39h-7.08V82.3a3.92,3.92,0,0,0,1,2.87,3.75,3.75,0,0,0,2.8,1,8.18,8.18,0,0,0,2.73-.51v4.72a11.89,11.89,0,0,1-3.84.6,7.54,7.54,0,0,1-5.74-2.1,8.49,8.49,0,0,1-2-6V69.39h-4V64.63h4V56.86h5v7.77h7.08Z"/><path class="cls-3" d="M519.92,89.1a10.57,10.57,0,0,1-4.12-4.65,18.29,18.29,0,0,1,0-14.18,10.79,10.79,0,0,1,4.12-4.65A11.87,11.87,0,0,1,526.21,64a11.74,11.74,0,0,1,6.24,1.64,10.89,10.89,0,0,1,4.14,4.65,17.95,17.95,0,0,1,0,14.18,10.67,10.67,0,0,1-4.14,4.65,11.82,11.82,0,0,1-6.24,1.62A12,12,0,0,1,519.92,89.1Zm11.19-5.44a10,10,0,0,0,1.81-6.31,9.93,9.93,0,0,0-1.81-6.29,6.31,6.31,0,0,0-9.76,0,10,10,0,0,0-1.8,6.29,10.07,10.07,0,0,0,1.8,6.31,6.26,6.26,0,0,0,9.76,0Z"/><path class="cls-3" d="M543.28,90.07l-.1-25.44h5.18v4.76h.23A10.4,10.4,0,0,1,558,64h.28v5.23h-.42a11.26,11.26,0,0,0-7,1.94,6.12,6.12,0,0,0-2.5,5V90.07Z"/><path class="cls-4" d="M91.77,35.13l8,24.47.68,2.08h27.91L107.49,76.8l-1.76,1.28.67,2.08,7.95,24.47L93.54,89.5l-1.77-1.28L90,89.5,69.19,104.63l8-24.47.68-2.08L76.05,76.8,55.24,61.68H83.15l.67-2.08,8-24.47m0-9.7L81,58.68H46L74.29,79.23l-10.8,33.25L91.77,91.93l28.29,20.55L109.25,79.23l28.29-20.55h-35L91.77,25.43Z"/></g><g id="Layer_4" data-name="Layer 4"><path class="cls-5" d="M53.31,83.42,40.86,72.93,53.31,62.45l2.88,2.92L47,72.89l9.16,7.61Z"/><path class="cls-5" d="M75,90.32q-3.83,0-5.71-1.84t-1.88-5.82V78a4.21,4.21,0,0,0-.85-2.87,3.61,3.61,0,0,0-2.82-1H62.58V70.65h1.17a5.9,5.9,0,0,0,1.69-.21,2.75,2.75,0,0,0,1.15-.65,2.55,2.55,0,0,0,.64-1.14A6.14,6.14,0,0,0,67.42,67V63.75a12,12,0,0,1,.43-3.35,5.54,5.54,0,0,1,3.72-3.85A10.84,10.84,0,0,1,75,56.06h1.55v3.48H75.4a5.64,5.64,0,0,0-1.6.21,3.11,3.11,0,0,0-1.23.69,3.06,3.06,0,0,0-.79,1.27,5.73,5.73,0,0,0-.28,1.94v3.24a10.64,10.64,0,0,1-.23,2.36,4.36,4.36,0,0,1-.71,1.63,3.26,3.26,0,0,1-1.22,1,6,6,0,0,1-1.73.51A4,4,0,0,1,70.54,74a6.91,6.91,0,0,1,1,4v4.69a6,6,0,0,0,.28,2A3.06,3.06,0,0,0,72.57,86a3.11,3.11,0,0,0,1.23.69,6,6,0,0,0,1.6.2h1.16v3.47Z"/><path class="cls-5" d="M86.28,87H81.9L94.79,56.9h4.4Z"/><path class="cls-5" d="M106.92,56.06c2.56,0,4.47.62,5.73,1.84s1.88,3.18,1.88,5.85v3.1a4.18,4.18,0,0,0,.84,2.85,3.58,3.58,0,0,0,2.82,1h1.18v3.49h-1.18a5.61,5.61,0,0,0-1.7.22,2.65,2.65,0,0,0-1.14.65,2.62,2.62,0,0,0-.62,1.14,6.11,6.11,0,0,0-.2,1.65v4.86A11.45,11.45,0,0,1,114.1,86a5.55,5.55,0,0,1-3.72,3.84,10.69,10.69,0,0,1-3.46.49h-1.55V86.85h1.18a6,6,0,0,0,1.6-.2,2.89,2.89,0,0,0,1.23-.7,3.13,3.13,0,0,0,.79-1.27,5.75,5.75,0,0,0,.28-2v-4.8a10.8,10.8,0,0,1,.23-2.37,4.81,4.81,0,0,1,.7-1.65,3.18,3.18,0,0,1,1.21-1,6,6,0,0,1,1.74-.5,4,4,0,0,1-2.93-1.56,7,7,0,0,1-1-4.06V63.71a6,6,0,0,0-.28-2,3.07,3.07,0,0,0-.79-1.29,2.86,2.86,0,0,0-1.23-.68,5.6,5.6,0,0,0-1.6-.2h-1.18V56.06Z"/><path class="cls-5" d="M128.62,62.45l12.45,10.48L128.62,83.42l-2.86-2.92L134.9,73l-9.14-7.59Z"/></g></svg>